<svg width="300" height="150" viewBox="0 0 300 150" fill="none" xmlns="http://www.w3.org/2000/svg">
<g clip-path="url(#clip0_1_3)">
<path d="M50.8301 116.526H59.3994V79.1729H96.7529V70.75H59.3994V33.25H50.8301V70.75H13.4766V79.1729H50.8301V116.526ZM67.6758 119.529H47.8271V82.1758H10.4736V67.7471H47.8271V30.2471H67.6758V67.7471H105.029V82.1758H67.6758V119.529ZM154.468 100.779L125.171 120.994C125.659 124.217 126.465 126.219 127.588 127H177.979L184.717 102.537C184.229 102.049 183.325 101.805 182.007 101.805C180.444 104.49 178.223 106.956 175.342 109.202C172.51 111.448 169.385 112.571 165.967 112.571H147.51V111.839L165.527 100.779C176.025 93.8457 181.274 85.6914 181.274 76.3164C181.274 69.8223 179.077 64.6709 174.683 60.8623C170.288 57.0537 164.331 55.1494 156.812 55.1494C149.048 55.1494 142.529 56.9316 137.256 60.4961C132.031 64.0117 129.419 69.0898 129.419 75.7305C129.419 78.2207 129.785 80.5156 130.518 82.6152C131.25 84.7148 132.129 86.3994 133.154 87.6689C134.229 88.8896 135.303 89.9395 136.377 90.8184C137.5 91.6484 138.428 92.21 139.16 92.5029L140.332 92.9424C142.041 92.8447 143.091 91.9414 143.481 90.2324C140.161 87.4492 138.501 83.1523 138.501 77.3418C138.501 73.0449 139.99 69.749 142.969 67.4541C145.996 65.1592 150.024 64.0117 155.054 64.0117C157.935 64.0117 160.669 65.1592 163.257 67.4541C165.894 69.749 167.212 73.5576 167.212 78.8799C167.212 83.8604 166.235 87.9619 164.282 91.1846C162.329 94.3584 159.058 97.5566 154.468 100.779ZM180.396 100.12C183.472 100.12 185.962 100.926 187.866 102.537L181.274 130.003H126.709C124.414 128.294 122.803 124.9 121.875 119.822L152.783 98.3623C160.4 92.9424 164.209 86.4482 164.209 78.8799C164.209 75.3643 163.477 72.6787 162.012 70.8232C160.547 68.9678 158.862 67.7959 156.958 67.3076C153.784 67.7959 151.294 68.8945 149.487 70.6035C147.681 72.3125 146.777 74.5586 146.777 77.3418C146.777 79.5391 147.192 81.6143 148.022 83.5674C148.901 85.5205 149.78 86.9365 150.659 87.8154L152.051 89.207C151.025 93.4062 148.73 95.6523 145.166 95.9453H139.893C139.502 95.8477 138.989 95.6523 138.354 95.3594C137.769 95.0664 136.694 94.3828 135.132 93.3086C133.618 92.1855 132.251 90.916 131.03 89.5C129.858 88.084 128.784 86.1553 127.808 83.7139C126.88 81.2725 126.416 78.6113 126.416 75.7305C126.416 68.1133 129.297 62.2783 135.059 58.2256C140.869 54.1729 148.12 52.1465 156.812 52.1465C168.335 52.1465 177.002 54.2705 182.812 58.5186C188.672 62.7666 191.602 68.6992 191.602 76.3164C191.602 86.9121 185.522 95.8965 173.364 103.27L163.11 109.568H166.406C169.238 109.471 171.924 108.494 174.463 106.639C177.002 104.734 178.979 102.562 180.396 100.12ZM215.259 66.1357C208.13 73.3623 204.565 82.0537 204.565 92.21C204.565 97.2881 205.518 102.073 207.422 106.565C209.375 111.009 212.012 114.915 215.332 118.284C218.652 121.604 222.534 124.241 226.978 126.194C231.47 128.147 236.255 129.124 241.333 129.124C246.411 129.124 251.196 128.147 255.688 126.194C260.181 124.241 264.111 121.604 267.48 118.284C270.85 114.915 273.511 111.009 275.464 106.565C277.417 102.073 278.394 97.2881 278.394 92.21C278.394 87.1807 277.393 82.4199 275.391 77.9277C273.438 73.4355 270.776 69.5049 267.407 66.1357C264.038 62.7666 260.107 60.1055 255.615 58.1523C251.123 56.1504 246.362 55.1494 241.333 55.1494C231.128 55.1494 222.437 58.8115 215.259 66.1357ZM241.333 52.1465C247.974 52.1465 254.053 53.1963 259.57 55.2959C265.137 57.3467 269.922 60.1787 273.926 63.792C277.93 67.3564 281.03 71.5801 283.228 76.4629C285.474 81.3457 286.597 86.5947 286.597 92.21C286.597 97.8252 285.474 103.074 283.228 107.957C281.03 112.791 277.93 117.015 273.926 120.628C269.971 124.192 265.21 127 259.644 129.051C254.077 131.102 247.974 132.127 241.333 132.127C230.347 132.127 220.972 128.221 213.208 120.408C205.444 112.596 201.562 103.196 201.562 92.21C201.562 81.2236 205.444 71.7998 213.208 63.9385C220.972 56.0771 230.347 52.1465 241.333 52.1465ZM214.453 92.3564C214.453 84.7393 217.041 78.2939 222.217 73.0205C227.441 67.6982 233.765 65.0371 241.187 65.0371C248.804 65.0371 255.249 67.6982 260.522 73.0205C265.845 78.2939 268.506 84.7393 268.506 92.3564C268.506 99.7295 265.845 106.053 260.522 111.326C255.249 116.6 248.804 119.236 241.187 119.236C233.862 119.236 227.563 116.6 222.29 111.326C217.065 106.053 214.453 99.7295 214.453 92.3564ZM222.729 92.3564C222.729 98.46 224.756 103.758 228.809 108.25C232.861 112.742 237.842 115.33 243.75 116.014C249.951 115.428 255.127 112.864 259.277 108.323C263.428 103.782 265.503 98.46 265.503 92.3564C265.503 86.0576 263.428 80.6377 259.277 76.0967C255.127 71.5557 249.951 68.9189 243.75 68.1865C237.744 68.9189 232.739 71.5557 228.735 76.0967C224.731 80.6377 222.729 86.0576 222.729 92.3564Z" fill="url(#paint0_linear_1_3)"/>
</g>
<defs>
<linearGradient id="paint0_linear_1_3" x1="174.5" y1="-27" x2="174.5" y2="123" gradientUnits="userSpaceOnUse">
<stop stop-color="#FBD348"/>
<stop offset="1" stop-color="#D1CDBE"/>
</linearGradient>
<clipPath id="clip0_1_3">
<rect width="300" height="150" fill="white"/>
</clipPath>
</defs>
</svg>
