<svg width="300" height="150" viewBox="0 0 300 150" fill="none" xmlns="http://www.w3.org/2000/svg">
<g clip-path="url(#clip0_1_11)">
<path d="M50.8301 92.5264H59.3994V55.1729H96.7529V46.75H59.3994V9.25H50.8301V46.75H13.4766V55.1729H50.8301V92.5264ZM67.6758 95.5293H47.8271V58.1758H10.4736V43.7471H47.8271V6.24707H67.6758V43.7471H105.029V58.1758H67.6758V95.5293ZM142.163 133.029C136.06 133.029 131.226 131.589 127.661 128.708C124.097 125.876 122.314 122.702 122.314 119.187C122.314 115.573 123.584 113.376 126.123 112.595C126.807 111.618 126.807 110.471 126.123 109.152C123.486 109.152 121.313 110.08 119.604 111.936C117.944 113.791 117.114 116.403 117.114 119.772C117.114 123.972 119.482 128.024 124.219 131.931C128.955 135.837 135.132 137.79 142.749 137.79C152.759 137.79 161.523 134.104 169.043 126.73C176.611 119.406 180.396 110.349 180.396 99.5576C180.396 93.0635 179.346 87.5947 177.246 83.1514C175.146 78.708 172.144 75.29 168.237 72.8975C164.331 70.4561 160.034 68.7471 155.347 67.7705C150.659 66.7451 145.215 66.2324 139.014 66.2324L142.163 47.7754H178.711L184.57 25.29C183.691 24.6064 182.495 24.2646 180.981 24.2646C179.517 27.0967 177.881 29.2695 176.074 30.7832C174.268 32.2969 170.801 33.1758 165.674 33.4199H138.062C136.401 50.9004 133.716 65.4023 130.005 76.9258C131.079 79.3184 132.617 80.71 134.619 81.1006C139.551 81.1006 143.75 81.3447 147.217 81.833C150.732 82.3213 154.199 83.2734 157.617 84.6895C161.084 86.1055 163.721 88.3271 165.527 91.3545C167.334 94.333 168.237 98.0684 168.237 102.561C168.237 113.156 165.649 120.871 160.474 125.705C155.347 130.588 149.243 133.029 142.163 133.029ZM179.004 21.2617C182.715 21.2617 185.669 22.2139 187.866 24.1182L180.981 50.7783H150.952L148.901 63.2295C162.28 63.4248 172.583 66.208 179.81 71.5791C187.085 76.9502 190.723 86.2764 190.723 99.5576C190.723 110.935 185.62 120.627 175.415 128.635C165.21 136.643 154.272 140.646 142.603 140.646C137.476 140.646 132.959 139.89 129.053 138.376C125.195 136.911 122.217 135.007 120.117 132.663C118.018 130.368 116.455 128.073 115.43 125.778C114.453 123.483 113.965 121.335 113.965 119.333C113.965 115.524 115.161 112.375 117.554 109.885C119.946 107.395 122.9 106.149 126.416 106.149C133.203 106.149 136.597 109.909 136.597 117.429C136.597 122.019 134.351 125.314 129.858 127.316C131.128 128.293 133.35 129.025 136.523 129.514C139.746 130.051 142.31 130.173 144.214 129.88C150.122 129.343 155.103 126.901 159.155 122.556C163.208 118.21 165.234 111.545 165.234 102.561C165.234 98.6543 164.38 95.4316 162.671 92.8926C160.962 90.3535 158.496 88.4736 155.273 87.2529C152.1 86.0322 148.877 85.2021 145.605 84.7627C142.383 84.3232 138.525 84.1035 134.033 84.1035C132.324 83.7129 130.957 83.0537 129.932 82.126C128.955 81.1494 127.93 79.5137 126.855 77.2188C130.664 65.3047 133.496 49.7041 135.352 30.417H166.919C169.556 30.3193 171.655 29.7334 173.218 28.6592C174.78 27.5361 175.903 26.5107 176.587 25.583C177.319 24.6064 178.125 23.166 179.004 21.2617ZM215.259 42.1357C208.13 49.3623 204.565 58.0537 204.565 68.21C204.565 73.2881 205.518 78.0732 207.422 82.5654C209.375 87.0088 212.012 90.915 215.332 94.2842C218.652 97.6045 222.534 100.241 226.978 102.194C231.47 104.147 236.255 105.124 241.333 105.124C246.411 105.124 251.196 104.147 255.688 102.194C260.181 100.241 264.111 97.6045 267.48 94.2842C270.85 90.915 273.511 87.0088 275.464 82.5654C277.417 78.0732 278.394 73.2881 278.394 68.21C278.394 63.1807 277.393 58.4199 275.391 53.9277C273.438 49.4355 270.776 45.5049 267.407 42.1357C264.038 38.7666 260.107 36.1055 255.615 34.1523C251.123 32.1504 246.362 31.1494 241.333 31.1494C231.128 31.1494 222.437 34.8115 215.259 42.1357ZM241.333 28.1465C247.974 28.1465 254.053 29.1963 259.57 31.2959C265.137 33.3467 269.922 36.1787 273.926 39.792C277.93 43.3564 281.03 47.5801 283.228 52.4629C285.474 57.3457 286.597 62.5947 286.597 68.21C286.597 73.8252 285.474 79.0742 283.228 83.957C281.03 88.791 277.93 93.0146 273.926 96.6279C269.971 100.192 265.21 103 259.644 105.051C254.077 107.102 247.974 108.127 241.333 108.127C230.347 108.127 220.972 104.221 213.208 96.4082C205.444 88.5957 201.562 79.1963 201.562 68.21C201.562 57.2236 205.444 47.7998 213.208 39.9385C220.972 32.0771 230.347 28.1465 241.333 28.1465ZM214.453 68.3564C214.453 60.7393 217.041 54.2939 222.217 49.0205C227.441 43.6982 233.765 41.0371 241.187 41.0371C248.804 41.0371 255.249 43.6982 260.522 49.0205C265.845 54.2939 268.506 60.7393 268.506 68.3564C268.506 75.7295 265.845 82.0527 260.522 87.3262C255.249 92.5996 248.804 95.2363 241.187 95.2363C233.862 95.2363 227.563 92.5996 222.29 87.3262C217.065 82.0527 214.453 75.7295 214.453 68.3564ZM222.729 68.3564C222.729 74.46 224.756 79.7578 228.809 84.25C232.861 88.7422 237.842 91.3301 243.75 92.0137C249.951 91.4277 255.127 88.8643 259.277 84.3232C263.428 79.7822 265.503 74.46 265.503 68.3564C265.503 62.0576 263.428 56.6377 259.277 52.0967C255.127 47.5557 249.951 44.9189 243.75 44.1865C237.744 44.9189 232.739 47.5557 228.735 52.0967C224.731 56.6377 222.729 62.0576 222.729 68.3564Z" fill="url(#paint0_radial_1_11)"/>
</g>
<defs>
<radialGradient id="paint0_radial_1_11" cx="0" cy="0" r="1" gradientUnits="userSpaceOnUse" gradientTransform="translate(174.5 24) rotate(90) scale(75 174.5)">
<stop stop-color="#A00808"/>
<stop offset="1" stop-color="#BFA6A6"/>
</radialGradient>
<clipPath id="clip0_1_11">
<rect width="300" height="150" fill="white"/>
</clipPath>
</defs>
</svg>
