<svg width="300" height="150" viewBox="0 0 300 150" fill="none" xmlns="http://www.w3.org/2000/svg">
<g clip-path="url(#clip0_1_4)">
<path d="M50.8301 93.5264H59.3994V56.1729H96.7529V47.75H59.3994V10.25H50.8301V47.75H13.4766V56.1729H50.8301V93.5264ZM67.6758 96.5293H47.8271V59.1758H10.4736V44.7471H47.8271V7.24707H67.6758V44.7471H105.029V59.1758H67.6758V96.5293ZM145.752 141.793C140.527 141.793 136.084 141.036 132.422 139.522C128.809 138.058 125.854 136.227 123.56 134.029C121.313 131.881 119.678 129.562 118.652 127.071C117.627 124.63 117.114 122.433 117.114 120.479C117.114 118.575 117.432 116.817 118.066 115.206C118.701 113.595 119.58 112.203 120.703 111.031C121.826 109.859 123.145 108.932 124.658 108.248C126.172 107.613 127.808 107.296 129.565 107.296C136.938 107.296 140.625 110.958 140.625 118.282C140.625 123.458 138.281 126.998 133.594 128.902C136.621 130.416 140.771 131.173 146.045 131.173C148.486 131.173 150.781 130.44 152.93 128.976C155.078 127.511 156.958 125.509 158.569 122.97C160.181 120.479 161.45 117.525 162.378 114.107C163.306 110.738 163.77 107.125 163.77 103.268C163.77 93.2578 159.863 87.6426 152.051 86.4219C148.73 86.8613 145.215 87.9111 141.504 89.5713H136.304L132.056 79.8301L146.631 72.7988C151.074 70.6504 154.395 67.9404 156.592 64.6689C158.838 61.3486 159.961 57.5156 159.961 53.1699C159.961 51.998 159.717 50.875 159.229 49.8008C158.74 48.6777 158.057 47.7256 157.178 46.9443C156.299 46.1143 155.249 45.4551 154.028 44.9668C152.808 44.4785 151.465 44.2344 150 44.2344C148.438 44.2344 146.899 44.4785 145.386 44.9668C143.921 45.4062 142.603 46.041 141.431 46.8711C140.308 47.6523 139.38 48.6289 138.647 49.8008C137.964 50.9238 137.622 52.1445 137.622 53.4629C137.622 58.0527 138.721 61.9102 140.918 65.0352C139.307 68.209 136.963 69.9424 133.887 70.2354C127.002 65.8408 123.56 59.7861 123.56 52.0713C123.56 48.7021 124.194 45.626 125.464 42.8428C126.733 40.0107 128.589 37.5938 131.03 35.5918C133.472 33.541 136.499 31.9541 140.112 30.8311C143.774 29.708 147.998 29.1465 152.783 29.1465C175.977 29.1465 187.573 37.0566 187.573 52.877C187.573 57.125 186.353 61.1045 183.911 64.8154C181.519 68.5264 178.247 71.627 174.097 74.1172C185.669 78.1699 191.455 87.2275 191.455 101.29C191.455 113.009 186.841 122.677 177.612 130.294C168.433 137.96 157.812 141.793 145.752 141.793ZM145.312 134.176C139.209 134.176 134.375 132.735 130.811 129.854C127.246 127.022 125.464 123.849 125.464 120.333C125.464 116.769 126.733 114.571 129.272 113.741C129.956 112.765 129.956 111.617 129.272 110.299C126.636 110.299 124.463 111.227 122.754 113.082C121.094 114.938 120.264 117.55 120.264 120.919C120.264 125.118 122.607 129.146 127.295 133.004C131.982 136.861 138.037 138.79 145.459 138.79C153.955 138.79 162.012 135.177 169.629 127.95C177.295 120.772 181.128 111.886 181.128 101.29C181.128 92.7939 178.906 86.4707 174.463 82.3203C170.02 78.1699 164.648 75.8506 158.35 75.3623V74.6299C163.525 73.0186 167.969 70.1865 171.68 66.1338C175.391 62.0811 177.246 57.6621 177.246 52.877C177.246 45.748 175.024 40.5234 170.581 37.2031C166.138 33.834 160.205 32.1494 152.783 32.1494C144.287 32.1494 137.793 34.0049 133.301 37.7158C128.809 41.4268 126.562 46.2119 126.562 52.0713C126.562 58.6143 129.248 63.6191 134.619 67.0859C135.938 66.8906 136.89 66.2559 137.476 65.1816C134.888 62.252 133.594 58.3457 133.594 53.4629C133.594 49.752 134.937 46.749 137.622 44.4541C140.308 42.1592 144.409 41.0117 149.927 41.0117C153.735 41.0117 156.86 42.2324 159.302 44.6738C161.743 47.1152 162.964 49.9473 162.964 53.1699C162.964 63.1797 157.983 70.626 148.022 75.5088L136.011 81.3682L137.769 85.6895C141.87 83.9805 145.679 83.126 149.194 83.126C154.175 83.126 158.35 84.6641 161.719 87.7402C165.088 90.7676 166.772 95.9434 166.772 103.268C166.772 112.545 164.795 120.016 160.84 125.68C156.885 131.344 151.709 134.176 145.312 134.176ZM215.259 43.1357C208.13 50.3623 204.565 59.0537 204.565 69.21C204.565 74.2881 205.518 79.0732 207.422 83.5654C209.375 88.0088 212.012 91.915 215.332 95.2842C218.652 98.6045 222.534 101.241 226.978 103.194C231.47 105.147 236.255 106.124 241.333 106.124C246.411 106.124 251.196 105.147 255.688 103.194C260.181 101.241 264.111 98.6045 267.48 95.2842C270.85 91.915 273.511 88.0088 275.464 83.5654C277.417 79.0732 278.394 74.2881 278.394 69.21C278.394 64.1807 277.393 59.4199 275.391 54.9277C273.438 50.4355 270.776 46.5049 267.407 43.1357C264.038 39.7666 260.107 37.1055 255.615 35.1523C251.123 33.1504 246.362 32.1494 241.333 32.1494C231.128 32.1494 222.437 35.8115 215.259 43.1357ZM241.333 29.1465C247.974 29.1465 254.053 30.1963 259.57 32.2959C265.137 34.3467 269.922 37.1787 273.926 40.792C277.93 44.3564 281.03 48.5801 283.228 53.4629C285.474 58.3457 286.597 63.5947 286.597 69.21C286.597 74.8252 285.474 80.0742 283.228 84.957C281.03 89.791 277.93 94.0146 273.926 97.6279C269.971 101.192 265.21 104 259.644 106.051C254.077 108.102 247.974 109.127 241.333 109.127C230.347 109.127 220.972 105.221 213.208 97.4082C205.444 89.5957 201.562 80.1963 201.562 69.21C201.562 58.2236 205.444 48.7998 213.208 40.9385C220.972 33.0771 230.347 29.1465 241.333 29.1465ZM214.453 69.3564C214.453 61.7393 217.041 55.2939 222.217 50.0205C227.441 44.6982 233.765 42.0371 241.187 42.0371C248.804 42.0371 255.249 44.6982 260.522 50.0205C265.845 55.2939 268.506 61.7393 268.506 69.3564C268.506 76.7295 265.845 83.0527 260.522 88.3262C255.249 93.5996 248.804 96.2363 241.187 96.2363C233.862 96.2363 227.563 93.5996 222.29 88.3262C217.065 83.0527 214.453 76.7295 214.453 69.3564ZM222.729 69.3564C222.729 75.46 224.756 80.7578 228.809 85.25C232.861 89.7422 237.842 92.3301 243.75 93.0137C249.951 92.4277 255.127 89.8643 259.277 85.3232C263.428 80.7822 265.503 75.46 265.503 69.3564C265.503 63.0576 263.428 57.6377 259.277 53.0967C255.127 48.5557 249.951 45.9189 243.75 45.1865C237.744 45.9189 232.739 48.5557 228.735 53.0967C224.731 57.6377 222.729 63.0576 222.729 69.3564Z" fill="url(#paint0_radial_1_4)"/>
</g>
<defs>
<radialGradient id="paint0_radial_1_4" cx="0" cy="0" r="1" gradientUnits="userSpaceOnUse" gradientTransform="translate(174.5 25) rotate(90) scale(75 174.5)">
<stop stop-color="#F79B2F"/>
<stop offset="1" stop-color="#D7C4AD"/>
</radialGradient>
<clipPath id="clip0_1_4">
<rect width="300" height="150" fill="white"/>
</clipPath>
</defs>
</svg>
