<svg width="300" height="150" viewBox="0 0 300 150" fill="none" xmlns="http://www.w3.org/2000/svg">
<g clip-path="url(#clip0_1_2)">
<path d="M50.8301 112.526H59.3994V75.1729H96.7529V66.75H59.3994V29.25H50.8301V66.75H13.4766V75.1729H50.8301V112.526ZM67.6758 115.529H47.8271V78.1758H10.4736V63.7471H47.8271V26.2471H67.6758V63.7471H105.029V78.1758H67.6758V115.529ZM162.524 112.966V63.4541C162.622 61.0615 164.233 59.4014 167.358 58.4736C170.532 57.4971 174.927 56.8623 180.542 56.5693C181.03 55.3486 181.03 54.1523 180.542 52.9805H136.011C135.474 54.1523 135.474 55.3486 136.011 56.5693C137.964 56.8623 139.331 57.082 140.112 57.2285C140.942 57.375 142.285 57.7168 144.141 58.2539C145.996 58.7422 147.339 59.4014 148.169 60.2314C149.048 61.0615 149.487 62.1357 149.487 63.4541C150.073 79.958 150.073 96.4619 149.487 112.966C149.487 114.235 149.048 115.31 148.169 116.188C147.339 117.019 145.996 117.702 144.141 118.239C142.285 118.728 140.942 119.045 140.112 119.191C139.331 119.338 137.964 119.558 136.011 119.851C135.474 121.071 135.474 122.268 136.011 123.439H180.542C181.03 122.268 181.03 121.071 180.542 119.851C174.927 119.558 170.508 118.947 167.285 118.02C164.111 117.043 162.524 115.358 162.524 112.966ZM146.484 112.819C147.168 96.9014 147.168 80.4951 146.484 63.6006C146.387 61.7939 141.992 60.3047 133.301 59.1328C132.471 56.2031 132.471 53.249 133.301 50.2705H183.252C184.033 53.249 184.033 56.2031 183.252 59.1328C176.416 60.207 172.949 61.6963 172.852 63.6006C172.07 79.0791 172.07 95.4854 172.852 112.819C172.949 114.724 176.416 116.213 183.252 117.287C184.033 120.217 184.033 123.171 183.252 126.149H133.301C132.471 123.171 132.471 120.217 133.301 117.287C141.992 116.115 146.387 114.626 146.484 112.819ZM215.259 62.1357C208.13 69.3623 204.565 78.0537 204.565 88.21C204.565 93.2881 205.518 98.0732 207.422 102.565C209.375 107.009 212.012 110.915 215.332 114.284C218.652 117.604 222.534 120.241 226.978 122.194C231.47 124.147 236.255 125.124 241.333 125.124C246.411 125.124 251.196 124.147 255.688 122.194C260.181 120.241 264.111 117.604 267.48 114.284C270.85 110.915 273.511 107.009 275.464 102.565C277.417 98.0732 278.394 93.2881 278.394 88.21C278.394 83.1807 277.393 78.4199 275.391 73.9277C273.438 69.4355 270.776 65.5049 267.407 62.1357C264.038 58.7666 260.107 56.1055 255.615 54.1523C251.123 52.1504 246.362 51.1494 241.333 51.1494C231.128 51.1494 222.437 54.8115 215.259 62.1357ZM241.333 48.1465C247.974 48.1465 254.053 49.1963 259.57 51.2959C265.137 53.3467 269.922 56.1787 273.926 59.792C277.93 63.3564 281.03 67.5801 283.228 72.4629C285.474 77.3457 286.597 82.5947 286.597 88.21C286.597 93.8252 285.474 99.0742 283.228 103.957C281.03 108.791 277.93 113.015 273.926 116.628C269.971 120.192 265.21 123 259.644 125.051C254.077 127.102 247.974 128.127 241.333 128.127C230.347 128.127 220.972 124.221 213.208 116.408C205.444 108.596 201.562 99.1963 201.562 88.21C201.562 77.2236 205.444 67.7998 213.208 59.9385C220.972 52.0771 230.347 48.1465 241.333 48.1465ZM214.453 88.3564C214.453 80.7393 217.041 74.2939 222.217 69.0205C227.441 63.6982 233.765 61.0371 241.187 61.0371C248.804 61.0371 255.249 63.6982 260.522 69.0205C265.845 74.2939 268.506 80.7393 268.506 88.3564C268.506 95.7295 265.845 102.053 260.522 107.326C255.249 112.6 248.804 115.236 241.187 115.236C233.862 115.236 227.563 112.6 222.29 107.326C217.065 102.053 214.453 95.7295 214.453 88.3564ZM222.729 88.3564C222.729 94.46 224.756 99.7578 228.809 104.25C232.861 108.742 237.842 111.33 243.75 112.014C249.951 111.428 255.127 108.864 259.277 104.323C263.428 99.7822 265.503 94.46 265.503 88.3564C265.503 82.0576 263.428 76.6377 259.277 72.0967C255.127 67.5557 249.951 64.9189 243.75 64.1865C237.744 64.9189 232.739 67.5557 228.735 72.0967C224.731 76.6377 222.729 82.0576 222.729 88.3564Z" fill="url(#paint0_linear_1_2)"/>
<path d="M50.8301 112.526H59.3994V75.1729H96.7529V66.75H59.3994V29.25H50.8301V66.75H13.4766V75.1729H50.8301V112.526ZM67.6758 115.529H47.8271V78.1758H10.4736V63.7471H47.8271V26.2471H67.6758V63.7471H105.029V78.1758H67.6758V115.529ZM162.524 112.966V63.4541C162.622 61.0615 164.233 59.4014 167.358 58.4736C170.532 57.4971 174.927 56.8623 180.542 56.5693C181.03 55.3486 181.03 54.1523 180.542 52.9805H136.011C135.474 54.1523 135.474 55.3486 136.011 56.5693C137.964 56.8623 139.331 57.082 140.112 57.2285C140.942 57.375 142.285 57.7168 144.141 58.2539C145.996 58.7422 147.339 59.4014 148.169 60.2314C149.048 61.0615 149.487 62.1357 149.487 63.4541C150.073 79.958 150.073 96.4619 149.487 112.966C149.487 114.235 149.048 115.31 148.169 116.188C147.339 117.019 145.996 117.702 144.141 118.239C142.285 118.728 140.942 119.045 140.112 119.191C139.331 119.338 137.964 119.558 136.011 119.851C135.474 121.071 135.474 122.268 136.011 123.439H180.542C181.03 122.268 181.03 121.071 180.542 119.851C174.927 119.558 170.508 118.947 167.285 118.02C164.111 117.043 162.524 115.358 162.524 112.966ZM146.484 112.819C147.168 96.9014 147.168 80.4951 146.484 63.6006C146.387 61.7939 141.992 60.3047 133.301 59.1328C132.471 56.2031 132.471 53.249 133.301 50.2705H183.252C184.033 53.249 184.033 56.2031 183.252 59.1328C176.416 60.207 172.949 61.6963 172.852 63.6006C172.07 79.0791 172.07 95.4854 172.852 112.819C172.949 114.724 176.416 116.213 183.252 117.287C184.033 120.217 184.033 123.171 183.252 126.149H133.301C132.471 123.171 132.471 120.217 133.301 117.287C141.992 116.115 146.387 114.626 146.484 112.819ZM215.259 62.1357C208.13 69.3623 204.565 78.0537 204.565 88.21C204.565 93.2881 205.518 98.0732 207.422 102.565C209.375 107.009 212.012 110.915 215.332 114.284C218.652 117.604 222.534 120.241 226.978 122.194C231.47 124.147 236.255 125.124 241.333 125.124C246.411 125.124 251.196 124.147 255.688 122.194C260.181 120.241 264.111 117.604 267.48 114.284C270.85 110.915 273.511 107.009 275.464 102.565C277.417 98.0732 278.394 93.2881 278.394 88.21C278.394 83.1807 277.393 78.4199 275.391 73.9277C273.438 69.4355 270.776 65.5049 267.407 62.1357C264.038 58.7666 260.107 56.1055 255.615 54.1523C251.123 52.1504 246.362 51.1494 241.333 51.1494C231.128 51.1494 222.437 54.8115 215.259 62.1357ZM241.333 48.1465C247.974 48.1465 254.053 49.1963 259.57 51.2959C265.137 53.3467 269.922 56.1787 273.926 59.792C277.93 63.3564 281.03 67.5801 283.228 72.4629C285.474 77.3457 286.597 82.5947 286.597 88.21C286.597 93.8252 285.474 99.0742 283.228 103.957C281.03 108.791 277.93 113.015 273.926 116.628C269.971 120.192 265.21 123 259.644 125.051C254.077 127.102 247.974 128.127 241.333 128.127C230.347 128.127 220.972 124.221 213.208 116.408C205.444 108.596 201.562 99.1963 201.562 88.21C201.562 77.2236 205.444 67.7998 213.208 59.9385C220.972 52.0771 230.347 48.1465 241.333 48.1465ZM214.453 88.3564C214.453 80.7393 217.041 74.2939 222.217 69.0205C227.441 63.6982 233.765 61.0371 241.187 61.0371C248.804 61.0371 255.249 63.6982 260.522 69.0205C265.845 74.2939 268.506 80.7393 268.506 88.3564C268.506 95.7295 265.845 102.053 260.522 107.326C255.249 112.6 248.804 115.236 241.187 115.236C233.862 115.236 227.563 112.6 222.29 107.326C217.065 102.053 214.453 95.7295 214.453 88.3564ZM222.729 88.3564C222.729 94.46 224.756 99.7578 228.809 104.25C232.861 108.742 237.842 111.33 243.75 112.014C249.951 111.428 255.127 108.864 259.277 104.323C263.428 99.7822 265.503 94.46 265.503 88.3564C265.503 82.0576 263.428 76.6377 259.277 72.0967C255.127 67.5557 249.951 64.9189 243.75 64.1865C237.744 64.9189 232.739 67.5557 228.735 72.0967C224.731 76.6377 222.729 82.0576 222.729 88.3564Z" fill="black" fill-opacity="0.2"/>
</g>
<defs>
<linearGradient id="paint0_linear_1_2" x1="174.5" y1="-31" x2="174.5" y2="119" gradientUnits="userSpaceOnUse">
<stop stop-color="#4B59A5"/>
<stop offset="1" stop-color="#ADB1C2"/>
</linearGradient>
<clipPath id="clip0_1_2">
<rect width="300" height="150" fill="white"/>
</clipPath>
</defs>
</svg>
