<svg width="300" height="150" viewBox="0 0 300 150" fill="none" xmlns="http://www.w3.org/2000/svg">
<g clip-path="url(#clip0_1_5)">
<path d="M50.8301 92.5264H59.3994V55.1729H96.7529V46.75H59.3994V9.25H50.8301V46.75H13.4766V55.1729H50.8301V92.5264ZM67.6758 95.5293H47.8271V58.1758H10.4736V43.7471H47.8271V6.24707H67.6758V43.7471H105.029V58.1758H67.6758V95.5293ZM131.177 89.377L160.913 51.877V89.377H131.177ZM173.511 89.2305L173.657 32.0283C173.022 31.4424 172.119 31.1494 170.947 31.1494L117.261 98.6787C117.261 100.974 117.896 102.414 119.165 103H160.62V135.08H173.511V103L192.847 102.854L194.971 89.2305H173.511ZM114.258 97.5801L169.409 28.1465C176.733 28.1465 181.543 29.2939 183.838 31.5889V86.374H203.76L200.903 105.856L183.838 106.003V138.083H157.617V106.003H118.433C115.649 104.489 114.258 101.682 114.258 97.5801ZM144.653 86.374H157.91V69.8213L144.653 86.374ZM213.794 42.1357C206.665 49.3623 203.101 58.0537 203.101 68.21C203.101 73.2881 204.053 78.0732 205.957 82.5654C207.91 87.0088 210.547 90.915 213.867 94.2842C217.188 97.6045 221.069 100.241 225.513 102.194C230.005 104.147 234.79 105.124 239.868 105.124C244.946 105.124 249.731 104.147 254.224 102.194C258.716 100.241 262.646 97.6045 266.016 94.2842C269.385 90.915 272.046 87.0088 273.999 82.5654C275.952 78.0732 276.929 73.2881 276.929 68.21C276.929 63.1807 275.928 58.4199 273.926 53.9277C271.973 49.4355 269.312 45.5049 265.942 42.1357C262.573 38.7666 258.643 36.1055 254.15 34.1523C249.658 32.1504 244.897 31.1494 239.868 31.1494C229.663 31.1494 220.972 34.8115 213.794 42.1357ZM239.868 28.1465C246.509 28.1465 252.588 29.1963 258.105 31.2959C263.672 33.3467 268.457 36.1787 272.461 39.792C276.465 43.3564 279.565 47.5801 281.763 52.4629C284.009 57.3457 285.132 62.5947 285.132 68.21C285.132 73.8252 284.009 79.0742 281.763 83.957C279.565 88.791 276.465 93.0146 272.461 96.6279C268.506 100.192 263.745 103 258.179 105.051C252.612 107.102 246.509 108.127 239.868 108.127C228.882 108.127 219.507 104.221 211.743 96.4082C203.979 88.5957 200.098 79.1963 200.098 68.21C200.098 57.2236 203.979 47.7998 211.743 39.9385C219.507 32.0771 228.882 28.1465 239.868 28.1465ZM212.988 68.3564C212.988 60.7393 215.576 54.2939 220.752 49.0205C225.977 43.6982 232.3 41.0371 239.722 41.0371C247.339 41.0371 253.784 43.6982 259.058 49.0205C264.38 54.2939 267.041 60.7393 267.041 68.3564C267.041 75.7295 264.38 82.0527 259.058 87.3262C253.784 92.5996 247.339 95.2363 239.722 95.2363C232.397 95.2363 226.099 92.5996 220.825 87.3262C215.601 82.0527 212.988 75.7295 212.988 68.3564ZM221.265 68.3564C221.265 74.46 223.291 79.7578 227.344 84.25C231.396 88.7422 236.377 91.3301 242.285 92.0137C248.486 91.4277 253.662 88.8643 257.812 84.3232C261.963 79.7822 264.038 74.46 264.038 68.3564C264.038 62.0576 261.963 56.6377 257.812 52.0967C253.662 47.5557 248.486 44.9189 242.285 44.1865C236.279 44.9189 231.274 47.5557 227.271 52.0967C223.267 56.6377 221.265 62.0576 221.265 68.3564Z" fill="url(#paint0_radial_1_5)"/>
</g>
<defs>
<radialGradient id="paint0_radial_1_5" cx="0" cy="0" r="1" gradientUnits="userSpaceOnUse" gradientTransform="translate(174.5 24) rotate(90) scale(75 174.5)">
<stop stop-color="#C70F0F"/>
<stop offset="1" stop-color="#D8B6B6"/>
</radialGradient>
<clipPath id="clip0_1_5">
<rect width="300" height="150" fill="white"/>
</clipPath>
</defs>
</svg>
